<svg width="512" height="512" viewBox="0 0 200 200" xmlns="http://www.w3.org/2000/svg">
  <rect width="200" height="200" fill="#0b0b0b"/>
  <defs>
    <linearGradient id="lgp" x1="0" y1="0" x2="1" y2="0">
      <stop offset="0" stop-color="#ff7e42"/>
      <stop offset="0.5" stop-color="#b87fb0"/>
      <stop offset="1" stop-color="#45a8ff"/>
    </linearGradient>
    <filter id="glp" x="-30%" y="-30%" width="160%" height="160%">
      <feGaussianBlur stdDeviation="2.5" result="b"/>
      <feMerge><feMergeNode in="b"/><feMergeNode in="SourceGraphic"/></feMerge>
    </filter>
  </defs>
  <g transform="translate(100,100) scale(0.8) translate(-100,-100)">
    <g filter="url(#glp)" fill="none" stroke="url(#lgp)" stroke-linecap="round" stroke-linejoin="round">
    <circle cx="100" cy="100" r="78" stroke-width="4"/>
    <path d="M12.00,100.00 L12.55,100.00 L13.10,100.00 L13.65,100.00 L14.20,100.00 L14.75,100.00 L15.30,100.00 L15.85,100.00 L16.40,100.00 L16.95,100.00 L17.50,100.00 L18.05,100.00 L18.60,100.00 L19.15,100.00 L19.70,100.00 L20.25,100.00 L20.80,100.00 L21.35,100.00 L21.90,100.00 L22.45,100.00 L23.00,100.00 L23.55,100.00 L24.10,100.00 L24.65,100.00 L25.20,100.00 L25.75,100.00 L26.30,100.00 L26.85,100.00 L27.40,100.00 L27.95,100.00 L28.50,100.00 L29.05,100.00 L29.60,100.00 L30.15,100.00 L30.70,100.00 L31.25,100.00 L31.80,100.00 L32.35,100.00 L32.90,100.00 L33.45,100.00 L34.00,100.00 L34.55,100.00 L35.10,100.00 L35.65,100.00 L36.20,100.00 L36.75,100.00 L37.30,100.00 L37.85,100.00 L38.40,100.00 L38.95,100.00 L39.50,100.00 L40.05,100.00 L40.60,99.94 L41.15,99.75 L41.70,99.41 L42.25,98.93 L42.80,98.34 L43.35,97.70 L43.90,97.05 L44.45,96.47 L45.00,96.03 L45.55,95.79 L46.10,95.82 L46.65,96.16 L47.20,96.83 L47.75,97.86 L48.30,99.22 L48.85,100.87 L49.40,102.77 L49.95,104.81 L50.50,106.91 L51.05,108.96 L51.60,110.82 L52.15,112.37 L52.70,113.51 L53.25,114.12 L53.80,114.12 L54.35,113.45 L54.90,112.09 L55.45,110.03 L56.00,107.33 L56.55,104.05 L57.10,100.31 L57.65,96.25 L58.20,92.04 L58.75,87.88 L59.30,83.95 L59.85,80.45 L60.40,77.58 L60.95,75.51 L61.50,74.37 L62.05,74.29 L62.60,75.31 L63.15,77.47 L63.70,80.71 L64.25,84.96 L64.80,90.08 L65.35,95.89 L65.90,102.15 L66.45,108.62 L67.00,115.02 L67.55,121.07 L68.10,126.49 L68.65,131.02 L69.20,134.41 L69.75,136.49 L70.30,137.11 L70.85,136.19 L71.40,133.72 L71.95,129.73 L72.50,124.37 L73.05,117.80 L73.60,110.28 L74.15,102.09 L74.70,93.56 L75.25,85.05 L75.80,76.91 L76.35,69.51 L76.90,63.18 L77.45,58.22 L78.00,54.87 L78.55,53.30 L79.10,53.64 L79.65,55.91 L80.20,60.06 L80.75,65.94 L81.30,73.36 L81.85,82.04 L82.40,91.62 L82.95,101.73 L83.50,111.95 L84.05,121.85 L84.60,131.02 L85.15,139.06 L85.70,145.62 L86.25,150.39 L86.80,153.16 L87.35,153.78 L87.90,152.20 L88.45,148.46 L89.00,142.68 L89.55,135.08 L90.10,125.97 L90.65,115.70 L91.20,104.69 L91.75,93.39 L92.30,82.27 L92.85,71.79 L93.40,62.38 L93.95,54.46 L94.50,48.35 L95.05,44.32 L95.60,42.55 L96.15,43.12 L96.70,46.01 L97.25,51.11 L97.80,58.23 L98.35,67.06 L98.90,77.26 L99.45,88.39 L100.00,100.00 L100.55,111.61 L101.10,122.74 L101.65,132.94 L102.20,141.77 L102.75,148.89 L103.30,153.99 L103.85,156.88 L104.40,157.45 L104.95,155.68 L105.50,151.65 L106.05,145.54 L106.60,137.62 L107.15,128.21 L107.70,117.73 L108.25,106.61 L108.80,95.31 L109.35,84.30 L109.90,74.03 L110.45,64.92 L111.00,57.32 L111.55,51.54 L112.10,47.80 L112.65,46.22 L113.20,46.84 L113.75,49.61 L114.30,54.38 L114.85,60.94 L115.40,68.98 L115.95,78.15 L116.50,88.05 L117.05,98.27 L117.60,108.38 L118.15,117.96 L118.70,126.64 L119.25,134.06 L119.80,139.94 L120.35,144.09 L120.90,146.36 L121.45,146.70 L122.00,145.13 L122.55,141.78 L123.10,136.82 L123.65,130.49 L124.20,123.09 L124.75,114.95 L125.30,106.44 L125.85,97.91 L126.40,89.72 L126.95,82.20 L127.50,75.63 L128.05,70.27 L128.60,66.28 L129.15,63.81 L129.70,62.89 L130.25,63.51 L130.80,65.59 L131.35,68.98 L131.90,73.51 L132.45,78.93 L133.00,84.98 L133.55,91.38 L134.10,97.85 L134.65,104.11 L135.20,109.92 L135.75,115.04 L136.30,119.29 L136.85,122.53 L137.40,124.69 L137.95,125.71 L138.50,125.63 L139.05,124.49 L139.60,122.42 L140.15,119.55 L140.70,116.05 L141.25,112.12 L141.80,107.96 L142.35,103.75 L142.90,99.69 L143.45,95.95 L144.00,92.67 L144.55,89.97 L145.10,87.91 L145.65,86.55 L146.20,85.88 L146.75,85.88 L147.30,86.49 L147.85,87.63 L148.40,89.18 L148.95,91.04 L149.50,93.09 L150.05,95.19 L150.60,97.23 L151.15,99.13 L151.70,100.78 L152.25,102.14 L152.80,103.17 L153.35,103.84 L153.90,104.18 L154.45,104.21 L155.00,103.97 L155.55,103.53 L156.10,102.95 L156.65,102.30 L157.20,101.66 L157.75,101.07 L158.30,100.59 L158.85,100.25 L159.40,100.06 L159.95,100.00 L160.50,100.00 L161.05,100.00 L161.60,100.00 L162.15,100.00 L162.70,100.00 L163.25,100.00 L163.80,100.00 L164.35,100.00 L164.90,100.00 L165.45,100.00 L166.00,100.00 L166.55,100.00 L167.10,100.00 L167.65,100.00 L168.20,100.00 L168.75,100.00 L169.30,100.00 L169.85,100.00 L170.40,100.00 L170.95,100.00 L171.50,100.00 L172.05,100.00 L172.60,100.00 L173.15,100.00 L173.70,100.00 L174.25,100.00 L174.80,100.00 L175.35,100.00 L175.90,100.00 L176.45,100.00 L177.00,100.00 L177.55,100.00 L178.10,100.00 L178.65,100.00 L179.20,100.00 L179.75,100.00 L180.30,100.00 L180.85,100.00 L181.40,100.00 L181.95,100.00 L182.50,100.00 L183.05,100.00 L183.60,100.00 L184.15,100.00 L184.70,100.00 L185.25,100.00 L185.80,100.00 L186.35,100.00 L186.90,100.00 L187.45,100.00 L188.00,100.00" stroke-width="3.4"/>
  </g>
  </g>
</svg>
